<svg width="18" height="17" viewBox="0 0 18 17" fill="none" xmlns="http://www.w3.org/2000/svg">
<path d="M14.8771 16.7778C16.3154 16.7778 17.5021 15.6049 17.2788 14.1841C17.0743 12.8831 16.7162 11.6079 16.2099 10.3856C15.3704 8.35901 14.1401 6.51761 12.589 4.96653C11.0379 3.41545 9.19649 2.18506 7.1699 1.34562C5.9476 0.839324 4.67236 0.481223 3.3714 0.276731C1.95056 0.0533947 0.777676 1.24009 0.777676 2.67838C0.777676 4.11666 1.95818 5.2533 3.35972 5.57636C3.97899 5.71911 4.5868 5.9133 5.1767 6.15764C6.57136 6.73533 7.83858 7.58206 8.90601 8.64949C9.97344 9.71692 10.8202 10.9841 11.3979 12.3788C11.6422 12.9687 11.8364 13.5765 11.9791 14.1958C12.3022 15.5973 13.4388 16.7778 14.8771 16.7778Z" fill="#ABCFD0"/>
</svg>
